<mxfile host="app.diagrams.net" agent="Mozilla/5.0 (Windows NT 6.1; Win64; x64) AppleWebKit/537.36 (KHTML, like Gecko) Chrome/109.0.0.0 Safari/537.36 OPR/95.0.0.0" version="24.8.6">
  <diagram name="Страница — 1" id="ZNCVUd0mU2nUiBDq-4Yq">
    <mxGraphModel dx="2749" dy="934" grid="1" gridSize="10" guides="1" tooltips="1" connect="1" arrows="1" fold="1" page="1" pageScale="1" pageWidth="827" pageHeight="1169" math="0" shadow="0">
      <root>
        <mxCell id="0" />
        <mxCell id="1" parent="0" />
        <mxCell id="byzXYcXOz94wg6up4ohZ-3" value=":Система" style="shape=umlLifeline;perimeter=lifelinePerimeter;whiteSpace=wrap;html=1;container=1;dropTarget=0;collapsible=0;recursiveResize=0;outlineConnect=0;portConstraint=eastwest;newEdgeStyle={&quot;curved&quot;:0,&quot;rounded&quot;:0};" parent="1" vertex="1">
          <mxGeometry x="80" y="40" width="100" height="580" as="geometry" />
        </mxCell>
        <mxCell id="byzXYcXOz94wg6up4ohZ-5" value="" style="html=1;points=[[0,0,0,0,5],[0,1,0,0,-5],[1,0,0,0,5],[1,1,0,0,-5]];perimeter=orthogonalPerimeter;outlineConnect=0;targetShapes=umlLifeline;portConstraint=eastwest;newEdgeStyle={&quot;curved&quot;:0,&quot;rounded&quot;:0};" parent="byzXYcXOz94wg6up4ohZ-3" vertex="1">
          <mxGeometry x="45" y="60" width="10" height="520" as="geometry" />
        </mxCell>
        <mxCell id="byzXYcXOz94wg6up4ohZ-4" value=":КаталогМаршрутов" style="shape=umlLifeline;perimeter=lifelinePerimeter;whiteSpace=wrap;html=1;container=1;dropTarget=0;collapsible=0;recursiveResize=0;outlineConnect=0;portConstraint=eastwest;newEdgeStyle={&quot;curved&quot;:0,&quot;rounded&quot;:0};" parent="1" vertex="1">
          <mxGeometry x="1260" y="268" width="130" height="510" as="geometry" />
        </mxCell>
        <mxCell id="byzXYcXOz94wg6up4ohZ-10" value="" style="html=1;points=[[0,0,0,0,5],[0,1,0,0,-5],[1,0,0,0,5],[1,1,0,0,-5]];perimeter=orthogonalPerimeter;outlineConnect=0;targetShapes=umlLifeline;portConstraint=eastwest;newEdgeStyle={&quot;curved&quot;:0,&quot;rounded&quot;:0};" parent="byzXYcXOz94wg6up4ohZ-4" vertex="1">
          <mxGeometry x="60" y="317" width="10" height="80" as="geometry" />
        </mxCell>
        <mxCell id="byzXYcXOz94wg6up4ohZ-12" value=":СборщикМаршрутов" style="shape=umlLifeline;perimeter=lifelinePerimeter;whiteSpace=wrap;html=1;container=1;dropTarget=0;collapsible=0;recursiveResize=0;outlineConnect=0;portConstraint=eastwest;newEdgeStyle={&quot;curved&quot;:0,&quot;rounded&quot;:0};" parent="1" vertex="1">
          <mxGeometry x="790" y="40" width="140" height="840" as="geometry" />
        </mxCell>
        <mxCell id="byzXYcXOz94wg6up4ohZ-16" value="" style="html=1;points=[[0,0,0,0,5],[0,1,0,0,-5],[1,0,0,0,5],[1,1,0,0,-5]];perimeter=orthogonalPerimeter;outlineConnect=0;targetShapes=umlLifeline;portConstraint=eastwest;newEdgeStyle={&quot;curved&quot;:0,&quot;rounded&quot;:0};" parent="byzXYcXOz94wg6up4ohZ-12" vertex="1">
          <mxGeometry x="65" y="210" width="10" height="440" as="geometry" />
        </mxCell>
        <mxCell id="byzXYcXOz94wg6up4ohZ-14" value=":КаталогРейсов" style="shape=umlLifeline;perimeter=lifelinePerimeter;whiteSpace=wrap;html=1;container=1;dropTarget=0;collapsible=0;recursiveResize=0;outlineConnect=0;portConstraint=eastwest;newEdgeStyle={&quot;curved&quot;:0,&quot;rounded&quot;:0};" parent="1" vertex="1">
          <mxGeometry x="414" y="40" width="100" height="300" as="geometry" />
        </mxCell>
        <mxCell id="byzXYcXOz94wg6up4ohZ-17" value=":Маршрут" style="shape=umlLifeline;perimeter=lifelinePerimeter;whiteSpace=wrap;html=1;container=1;dropTarget=0;collapsible=0;recursiveResize=0;outlineConnect=0;portConstraint=eastwest;newEdgeStyle={&quot;curved&quot;:0,&quot;rounded&quot;:0};" parent="1" vertex="1">
          <mxGeometry x="1035" y="329" width="100" height="310" as="geometry" />
        </mxCell>
        <mxCell id="byzXYcXOz94wg6up4ohZ-21" value="" style="html=1;points=[[0,0,0,0,5],[0,1,0,0,-5],[1,0,0,0,5],[1,1,0,0,-5]];perimeter=orthogonalPerimeter;outlineConnect=0;targetShapes=umlLifeline;portConstraint=eastwest;newEdgeStyle={&quot;curved&quot;:0,&quot;rounded&quot;:0};" parent="byzXYcXOz94wg6up4ohZ-17" vertex="1">
          <mxGeometry x="46" y="75" width="10" height="145" as="geometry" />
        </mxCell>
        <mxCell id="byzXYcXOz94wg6up4ohZ-60" value="&lt;div&gt;&lt;br&gt;&lt;/div&gt;&lt;div&gt;&lt;br&gt;&lt;/div&gt;&lt;div&gt;&lt;br&gt;&lt;/div&gt;&lt;div&gt;&lt;br&gt;&lt;/div&gt;" style="html=1;points=[[0,0,0,0,5],[0,1,0,0,-5],[1,0,0,0,5],[1,1,0,0,-5]];perimeter=orthogonalPerimeter;outlineConnect=0;targetShapes=umlLifeline;portConstraint=eastwest;newEdgeStyle={&quot;curved&quot;:0,&quot;rounded&quot;:0};strokeColor=default;align=center;verticalAlign=middle;fontFamily=Helvetica;fontSize=12;fontColor=default;fillColor=default;" parent="byzXYcXOz94wg6up4ohZ-17" vertex="1">
          <mxGeometry x="56" y="168" width="10" height="40" as="geometry" />
        </mxCell>
        <mxCell id="byzXYcXOz94wg6up4ohZ-61" value="РассчитатьЦену" style="html=1;align=left;spacingLeft=2;endArrow=block;rounded=0;edgeStyle=orthogonalEdgeStyle;curved=0;rounded=0;strokeColor=default;verticalAlign=middle;fontFamily=Helvetica;fontSize=12;fontColor=default;labelBackgroundColor=default;autosize=1;resizable=0;endSize=12;" parent="byzXYcXOz94wg6up4ohZ-17" edge="1">
          <mxGeometry relative="1" as="geometry">
            <mxPoint x="56" y="138.02857142857147" as="sourcePoint" />
            <Array as="points">
              <mxPoint x="91" y="138" />
              <mxPoint x="91" y="188" />
            </Array>
            <mxPoint x="66" y="188.02857142857147" as="targetPoint" />
          </mxGeometry>
        </mxCell>
        <mxCell id="byzXYcXOz94wg6up4ohZ-18" value="" style="endArrow=open;endFill=1;endSize=12;html=1;rounded=0;" parent="1" edge="1">
          <mxGeometry width="160" relative="1" as="geometry">
            <mxPoint x="865" y="349" as="sourcePoint" />
            <mxPoint x="1036" y="349" as="targetPoint" />
          </mxGeometry>
        </mxCell>
        <mxCell id="byzXYcXOz94wg6up4ohZ-19" value="Маршрут = Создать()" style="text;html=1;align=center;verticalAlign=middle;resizable=0;points=[];autosize=1;strokeColor=none;fillColor=none;" parent="1" vertex="1">
          <mxGeometry x="873" y="324" width="140" height="30" as="geometry" />
        </mxCell>
        <mxCell id="byzXYcXOz94wg6up4ohZ-23" value="" style="html=1;points=[[0,0,0,0,5],[0,1,0,0,-5],[1,0,0,0,5],[1,1,0,0,-5]];perimeter=orthogonalPerimeter;outlineConnect=0;targetShapes=umlLifeline;portConstraint=eastwest;newEdgeStyle={&quot;curved&quot;:0,&quot;rounded&quot;:0};" parent="1" vertex="1">
          <mxGeometry x="459" y="160" width="10" height="80" as="geometry" />
        </mxCell>
        <mxCell id="byzXYcXOz94wg6up4ohZ-27" value="" style="endArrow=open;endFill=1;endSize=12;html=1;rounded=0;entryX=0.46;entryY=0.9;entryDx=0;entryDy=0;entryPerimeter=0;" parent="1" edge="1">
          <mxGeometry width="160" relative="1" as="geometry">
            <mxPoint x="135" y="153.00000000000023" as="sourcePoint" />
            <mxPoint x="459.99999999999955" y="156.00000000000023" as="targetPoint" />
          </mxGeometry>
        </mxCell>
        <mxCell id="byzXYcXOz94wg6up4ohZ-28" value="ПрямыеРейсы(Дата, ГородВылета, ГородПрилета)" style="text;html=1;align=center;verticalAlign=middle;resizable=0;points=[];autosize=1;strokeColor=none;fillColor=none;" parent="1" vertex="1">
          <mxGeometry x="149" y="126" width="310" height="30" as="geometry" />
        </mxCell>
        <mxCell id="byzXYcXOz94wg6up4ohZ-29" value="" style="endArrow=open;endFill=1;endSize=12;html=1;rounded=0;" parent="1" target="byzXYcXOz94wg6up4ohZ-5" edge="1">
          <mxGeometry width="160" relative="1" as="geometry">
            <mxPoint x="-440" y="130" as="sourcePoint" />
            <mxPoint x="120" y="128" as="targetPoint" />
          </mxGeometry>
        </mxCell>
        <mxCell id="byzXYcXOz94wg6up4ohZ-31" value="ВернутьМаршрутыПоОтбору(ДатаВылета, ДатаПрилета,&amp;nbsp;&lt;span style=&quot;background-color: initial;&quot;&gt;ГородВылета, ГородПрилета&lt;/span&gt;&lt;span style=&quot;background-color: initial;&quot;&gt;)&lt;/span&gt;" style="text;html=1;align=center;verticalAlign=middle;resizable=0;points=[];autosize=1;strokeColor=none;fillColor=none;fontFamily=Helvetica;fontSize=12;fontColor=default;" parent="1" vertex="1">
          <mxGeometry x="-429" y="103" width="510" height="30" as="geometry" />
        </mxCell>
        <mxCell id="byzXYcXOz94wg6up4ohZ-32" value="" style="endArrow=open;endFill=1;endSize=12;html=1;rounded=0;strokeColor=default;align=center;verticalAlign=middle;fontFamily=Helvetica;fontSize=12;fontColor=default;labelBackgroundColor=default;autosize=1;resizable=0;" parent="1" edge="1">
          <mxGeometry width="160" relative="1" as="geometry">
            <mxPoint x="135" y="256.0000000000002" as="sourcePoint" />
            <mxPoint x="859.5" y="256.0000000000002" as="targetPoint" />
          </mxGeometry>
        </mxCell>
        <mxCell id="byzXYcXOz94wg6up4ohZ-33" value="СписокМаршрутов = МаршрутыИзРейсов(Рейсы)" style="text;html=1;align=center;verticalAlign=middle;resizable=0;points=[];autosize=1;strokeColor=none;fillColor=none;fontFamily=Helvetica;fontSize=12;fontColor=default;" parent="1" vertex="1">
          <mxGeometry x="145" y="233" width="300" height="30" as="geometry" />
        </mxCell>
        <mxCell id="byzXYcXOz94wg6up4ohZ-38" value=":Рейс" style="shape=umlLifeline;perimeter=lifelinePerimeter;whiteSpace=wrap;html=1;container=1;dropTarget=0;collapsible=0;recursiveResize=0;outlineConnect=0;portConstraint=eastwest;newEdgeStyle={&quot;curved&quot;:0,&quot;rounded&quot;:0};" parent="1" vertex="1">
          <mxGeometry x="634" y="184" width="90" height="82" as="geometry" />
        </mxCell>
        <mxCell id="byzXYcXOz94wg6up4ohZ-40" value="" style="endArrow=open;endFill=1;endSize=12;html=1;rounded=0;strokeColor=default;align=center;verticalAlign=middle;fontFamily=Helvetica;fontSize=12;fontColor=default;labelBackgroundColor=default;autosize=1;resizable=0;" parent="1" edge="1">
          <mxGeometry width="160" relative="1" as="geometry">
            <mxPoint x="468.99999999999955" y="205.99999999999977" as="sourcePoint" />
            <mxPoint x="634" y="206" as="targetPoint" />
          </mxGeometry>
        </mxCell>
        <mxCell id="byzXYcXOz94wg6up4ohZ-41" value="Рейс = Создать()" style="text;html=1;align=center;verticalAlign=middle;resizable=0;points=[];autosize=1;strokeColor=none;fillColor=none;fontFamily=Helvetica;fontSize=12;fontColor=default;" parent="1" vertex="1">
          <mxGeometry x="478" y="184" width="120" height="30" as="geometry" />
        </mxCell>
        <mxCell id="byzXYcXOz94wg6up4ohZ-42" value="" style="endArrow=open;endFill=1;endSize=12;html=1;rounded=0;strokeColor=default;align=center;verticalAlign=middle;fontFamily=Helvetica;fontSize=12;fontColor=default;labelBackgroundColor=default;autosize=1;resizable=0;" parent="1" target="byzXYcXOz94wg6up4ohZ-21" edge="1">
          <mxGeometry width="160" relative="1" as="geometry">
            <mxPoint x="865" y="404" as="sourcePoint" />
            <mxPoint x="1060" y="429" as="targetPoint" />
          </mxGeometry>
        </mxCell>
        <mxCell id="byzXYcXOz94wg6up4ohZ-43" value="Добавить(РейсПрямой)" style="text;html=1;align=center;verticalAlign=middle;resizable=0;points=[];autosize=1;strokeColor=none;fillColor=none;fontFamily=Helvetica;fontSize=12;fontColor=default;" parent="1" vertex="1">
          <mxGeometry x="883" y="377" width="150" height="30" as="geometry" />
        </mxCell>
        <mxCell id="byzXYcXOz94wg6up4ohZ-44" value="Добавить(РейсОбратный)" style="text;html=1;align=center;verticalAlign=middle;resizable=0;points=[];autosize=1;strokeColor=none;fillColor=none;fontFamily=Helvetica;fontSize=12;fontColor=default;" parent="1" vertex="1">
          <mxGeometry x="873" y="421" width="170" height="30" as="geometry" />
        </mxCell>
        <mxCell id="byzXYcXOz94wg6up4ohZ-45" value="" style="endArrow=open;endFill=1;endSize=12;html=1;rounded=0;strokeColor=default;align=center;verticalAlign=middle;fontFamily=Helvetica;fontSize=12;fontColor=default;labelBackgroundColor=default;autosize=1;resizable=0;" parent="1" target="byzXYcXOz94wg6up4ohZ-21" edge="1">
          <mxGeometry width="160" relative="1" as="geometry">
            <mxPoint x="865" y="448" as="sourcePoint" />
            <mxPoint x="1075" y="448" as="targetPoint" />
          </mxGeometry>
        </mxCell>
        <mxCell id="byzXYcXOz94wg6up4ohZ-62" value="ОбратныеРейсы(Дата, ГородВылета, ГородПрилета)" style="text;html=1;align=center;verticalAlign=middle;resizable=0;points=[];autosize=1;strokeColor=none;fillColor=none;" parent="1" vertex="1">
          <mxGeometry x="139" y="170" width="320" height="30" as="geometry" />
        </mxCell>
        <mxCell id="byzXYcXOz94wg6up4ohZ-63" value="" style="endArrow=open;endFill=1;endSize=12;html=1;rounded=0;" parent="1" edge="1">
          <mxGeometry width="160" relative="1" as="geometry">
            <mxPoint x="135" y="193.00000000000023" as="sourcePoint" />
            <mxPoint x="458.99999999999955" y="193.00000000000023" as="targetPoint" />
          </mxGeometry>
        </mxCell>
        <mxCell id="byzXYcXOz94wg6up4ohZ-64" value="" style="endArrow=open;endFill=1;endSize=12;html=1;rounded=0;strokeColor=default;align=center;verticalAlign=middle;fontFamily=Helvetica;fontSize=12;fontColor=default;labelBackgroundColor=default;autosize=1;resizable=0;" parent="1" edge="1">
          <mxGeometry width="160" relative="1" as="geometry">
            <mxPoint x="865" y="287.9999999999998" as="sourcePoint" />
            <mxPoint x="1260" y="288" as="targetPoint" />
          </mxGeometry>
        </mxCell>
        <mxCell id="byzXYcXOz94wg6up4ohZ-65" value="Каталог = Создать" style="text;html=1;align=center;verticalAlign=middle;resizable=0;points=[];autosize=1;strokeColor=none;fillColor=none;fontFamily=Helvetica;fontSize=12;fontColor=default;" parent="1" vertex="1">
          <mxGeometry x="1005" y="266" width="130" height="30" as="geometry" />
        </mxCell>
        <mxCell id="byzXYcXOz94wg6up4ohZ-66" value="" style="endArrow=open;endFill=1;endSize=12;html=1;rounded=0;strokeColor=default;align=center;verticalAlign=middle;fontFamily=Helvetica;fontSize=12;fontColor=default;labelBackgroundColor=default;autosize=1;resizable=0;" parent="1" target="byzXYcXOz94wg6up4ohZ-10" edge="1">
          <mxGeometry width="160" relative="1" as="geometry">
            <mxPoint x="865" y="587.9999999999998" as="sourcePoint" />
            <mxPoint x="1038" y="598" as="targetPoint" />
          </mxGeometry>
        </mxCell>
        <mxCell id="byzXYcXOz94wg6up4ohZ-67" value="Добавить(Маршрут)" style="text;html=1;align=center;verticalAlign=middle;resizable=0;points=[];autosize=1;strokeColor=none;fillColor=none;fontFamily=Helvetica;fontSize=12;fontColor=default;" parent="1" vertex="1">
          <mxGeometry x="880" y="566" width="140" height="30" as="geometry" />
        </mxCell>
      </root>
    </mxGraphModel>
  </diagram>
</mxfile>
